# xmcd
# 
# Track frame offsets:
#     150
#     15164
#     31158
#     48145
#     69693
#     83458
#     99823
#     119411
#     137623
#     152725
#     172185
#     188282
#     206078
# 
# Disc length: 3030
# 
# Revision: 8
# Processed by: cddbd v1.5.2PL0 Copyright (c) Steve Scherf et al.
# Submitted via: fre:ac v1.0.31
# 
DISCID=950bd40d
DTITLE=Carrie Underwood - Carnival Ride
DYEAR=2007
DGENRE=Country
TTITLE0=Flat on the Floor
TTITLE1=All-American Girl
TTITLE2=So Small
TTITLE3=Just a Dream
TTITLE4=Get Out of This Town
TTITLE5=Crazy Dreams
TTITLE6=I Know You Won't
TTITLE7=Last Name
TTITLE8=You Won't Find This
TTITLE9=I Told You So
TTITLE10=The More Boys I Meet
TTITLE11=Twisted
TTITLE12=Wheel of the World
EXTD=
EXTT0=
EXTT1=
EXTT2=
EXTT3=
EXTT4=
EXTT5=
EXTT6=
EXTT7=
EXTT8=
EXTT9=
EXTT10=
EXTT11=
EXTT12=
PLAYORDER=
